<?xml version="1.0" encoding="utf-8"?>
<!-- Generator: Adobe Illustrator 21.1.0, SVG Export Plug-In . SVG Version: 6.00 Build 0)  -->
<svg version="1.1" xmlns="http://www.w3.org/2000/svg" xmlns:xlink="http://www.w3.org/1999/xlink" x="0px" y="0px"
	 viewBox="0 0 1424.2 465.2" style="enable-background:new 0 0 1424.2 465.2;" xml:space="preserve">
<style type="text/css">
	.st0{fill:#E4264B;stroke:#E4264B;stroke-width:3;stroke-miterlimit:10;}
	.st1{fill:#E4264B;stroke:#E4264B;stroke-width:4;stroke-miterlimit:10;}
	.st2{fill:#E4264C;}
	.st3{display:none;}
	.st4{display:inline;fill:#00AEEF;}
	.st5{display:inline;}
	.st6{fill:#FFFFFF;stroke:#FFFFFF;stroke-width:3;stroke-miterlimit:10;}
	.st7{fill:#FFFFFF;stroke:#FFFFFF;stroke-width:4;stroke-miterlimit:10;}
	.st8{display:inline;fill:#FFFFFF;}
	.st9{font-family:'Catamaran-SemiBold';}
	.st10{font-size:309.7216px;}
	.st11{fill:#00AEEF;}
</style>
<g id="Logo_Primary">
	<g>
		<path class="st0" d="M143.7,463.7C65.6,463.7,2,400.1,2,322c0-30,11.6-59.2,36.4-92.1l4-5.3l4,5.3c4.1,5.5,8.7,11.1,13.6,16.8
			c18.1,21,35.7,36.6,37.6,38.3l3.2,2.8l-2.3,3.6C90.6,303.7,86.6,314,86.6,322c0,31.5,25.6,57.1,57.1,57.1
			c31.5,0,57.1-25.6,57.1-57.1c0-8-4-18.3-11.9-30.6c-17.6-27.4-48.2-54.5-48.5-54.8c-1.3-1.1-32-28.4-50.3-56.9l-2-3l2.6-3.2
			l0.4-0.4l-0.1,0.1l52.7-46.5l52.6,46.4c0.1,0,0.1,0.1,0.2,0.1c2,1.8,20.2,18,38.5,39.3c5,5.8,9.7,11.6,14,17.3
			c24.8,32.9,36.4,62.2,36.4,92.1C285.4,400.1,221.8,463.7,143.7,463.7z M147,229.1c1.3,1.1,32,28.4,50.3,56.9
			c9,13.9,13.5,26,13.5,36c0,37-30.1,67.1-67.1,67.1c-37,0-67.1-30.1-67.1-67.1c0-9.1,3.8-20,11.3-32.4
			c-6.3-5.8-20.7-19.4-35.4-36.5c-3.5-4-6.8-8-9.9-12C21.7,270.1,12,295.9,12,322c0,72.6,59.1,131.7,131.7,131.7
			c72.6,0,131.7-59.1,131.7-131.7c0-27.7-10.9-55-34.4-86.1c-4.1-5.5-8.7-11.1-13.6-16.8c-17.9-20.8-35.6-36.5-37.6-38.3l-0.1-0.1
			l-46-40.6l-42.8,37.8C118.7,204,146.7,228.8,147,229.1"/>
		<path class="st1" d="M210.8,143.7c0,9.1-3.8,20-11.3,32.4c-1.6-1.5-2.7-2.5-3.1-2.8c-0.1,0-0.1-0.1-0.2-0.1l-4.3-3.8
			c5.9-10.1,8.9-18.7,8.9-25.6c0-31.5-25.6-57.1-57.1-57.1c-31.5,0-57.1,25.6-57.1,57.1c0,8,4,18.3,11.9,30.6
			c17.6,27.4,48.2,54.5,48.5,54.8c0.2,0.2,1.5,1.4,3.6,3.3l-6.7,7.5c-2.2-2-3.5-3.2-3.6-3.3c-1.3-1.1-32-28.4-50.3-56.9
			c-9-13.9-13.5-26.1-13.5-36c0-37,30.1-67.1,67.1-67.1C180.7,76.6,210.8,106.7,210.8,143.7z M143.7,2C65.6,2,2,65.6,2,143.7
			c0,30,11.6,59.2,36.4,92.1c4.3,5.6,9,11.5,14,17.3C71,274.6,89,290.7,91,292.4l0,0c0,0,0.1,0.1,0.1,0.1l52.6,46.4l48.3-42.6
			c-0.9-1.6-2-3.3-3-5c-0.8-1.2-1.6-2.4-2.4-3.6l-42.8,37.8l-46-40.6l-0.1-0.1l0,0c-1.9-1.7-19.5-17.3-37.6-38.3
			c-4.9-5.7-9.5-11.3-13.6-16.8C22.9,198.7,12,171.4,12,143.7C12,71.1,71.1,12,143.7,12c72.6,0,131.7,59.1,131.7,131.7
			c0,26.1-9.7,51.9-30.5,80.8c-0.8-1.1,2,2.5,4.1,5.3c0.8,1,1.5,2,2.2,3c23.3-31.7,34.2-60.1,34.2-89.1C285.4,65.6,221.8,2,143.7,2z
			"/>
	</g>
	<g>
		<path class="st2" d="M545.8,242.3v96.6h-34.7v-94.5c0-20.9-7.8-31.3-23.5-31.3c-12.4,0-26.9,6.9-43.7,20.8v105h-34.7V123.6
			l34.7-3.4v82.4c8.5-5.8,17.2-10.4,26.3-13.8c9.1-3.4,17.7-5.1,25.7-5.1C529.2,183.7,545.8,203.2,545.8,242.3z"/>
		<path class="st2" d="M716.8,305.1c-6.4,12-15.5,21.3-27.3,27.9s-25.5,9.9-41.2,9.9c-15.7,0-29.3-3.3-40.9-9.9
			c-11.6-6.6-20.5-15.8-26.8-27.7c-6.3-11.9-9.4-25.8-9.4-41.7c0-15.7,3.1-29.5,9.4-41.3c6.3-11.9,15.3-21.1,27.1-27.7
			c11.8-6.6,25.5-9.9,41.2-9.9c15.7,0,29.4,3.3,41,9.8c11.7,6.5,20.6,15.7,26.9,27.7c6.3,12,9.4,25.8,9.4,41.5
			C726.4,279.3,723.2,293.2,716.8,305.1z M678.8,298.9c7.7-9.3,11.6-21,11.6-35c0-14.7-3.8-26.6-11.3-35.8
			c-7.5-9.2-17.6-13.8-30.2-13.8c-12.4,0-22.5,4.6-30.2,13.9c-7.7,9.3-11.7,21.1-11.9,35.3c0,14.7,3.8,26.5,11.3,35.6
			c7.5,9.1,17.6,13.6,30.2,13.6C660.9,312.9,671.1,308.2,678.8,298.9z"/>
		<path class="st2" d="M744.4,328.4l10.5-24.2c14.2,6.8,27.6,10.2,40,10.2c7.8,0,14.6-1.4,20.1-4.3c5.6-2.9,8.4-6.8,8.4-11.8
			c0-9.1-9.9-16.8-29.7-23.2c-33-10.7-49.6-26-49.6-45.8c0-13.8,5.2-24.7,15.5-32.7c10.3-7.9,24.4-11.9,42.1-11.9
			c7,0,15.4,1.3,25.2,4c9.8,2.7,18,6.3,24.6,10.8l-10.8,23.5c-7.2-3.3-13.9-5.8-20-7.6c-6.1-1.8-12.7-2.6-19.7-2.6
			c-6.4,0-11.8,1.5-16.1,4.6c-4.3,3.1-6.5,6.9-6.5,11.5c0.2,3.5,2.7,6.7,7.4,9.6c4.7,2.9,11.4,5.8,19.8,8.7
			c34.1,12.2,51.1,28.7,51.1,49.6c0,14.7-5.3,26-16,34.1c-10.6,8.1-26,12.1-46,12.1c-7.4,0-16.2-1.3-26.2-3.9
			C758.6,336.5,750.5,332.9,744.4,328.4z"/>
		<path class="st2" d="M951.9,189.9l10.5,26.6h-37.8v71.5c0,8.1,1.8,14.5,5.4,19.4c3.6,4.9,9,7.3,16.3,7.3c4.7,0,9.9-1.2,15.5-3.7
			l9.6,25.7c-3.1,2.1-7.4,3.9-12.9,5.4c-5.5,1.5-10.5,2.3-15,2.3c-16.7,0-29.8-4.3-39.3-13c-9.5-8.7-14.2-21.2-14.2-37.5v-77.4
			h-20.8v-26.6h20.8v-36.9l34.7-6.8v43.7H951.9z"/>
		<path class="st2" d="M986.2,328.4l10.5-24.2c14.2,6.8,27.6,10.2,40,10.2c7.8,0,14.6-1.4,20.1-4.3c5.6-2.9,8.4-6.8,8.4-11.8
			c0-9.1-9.9-16.8-29.7-23.2c-33-10.7-49.6-26-49.6-45.8c0-13.8,5.2-24.7,15.5-32.7c10.3-7.9,24.4-11.9,42.1-11.9
			c7,0,15.4,1.3,25.2,4c9.8,2.7,18,6.3,24.6,10.8l-10.8,23.5c-7.2-3.3-13.9-5.8-20-7.6c-6.1-1.8-12.7-2.6-19.7-2.6
			c-6.4,0-11.8,1.5-16.1,4.6c-4.3,3.1-6.5,6.9-6.5,11.5c0.2,3.5,2.7,6.7,7.4,9.6c4.7,2.9,11.4,5.8,19.8,8.7
			c34.1,12.2,51.1,28.7,51.1,49.6c0,14.7-5.3,26-16,34.1c-10.6,8.1-26,12.1-46,12.1c-7.4,0-16.2-1.3-26.2-3.9
			C1000.5,336.5,992.4,332.9,986.2,328.4z"/>
		<path class="st2" d="M1234,302.7l10.2,25.4c-6.4,4.5-14.8,8.2-25.1,10.8c-10.3,2.7-19.1,4-26.3,4c-15.7,0-29.3-3.3-40.9-9.9
			c-11.6-6.6-20.5-15.8-26.8-27.7c-6.3-11.9-9.4-25.8-9.4-41.7c0-15.7,3.1-29.5,9.4-41.3c6.3-11.9,15.3-21.1,27.1-27.7
			c11.8-6.6,25.5-9.9,41.2-9.9c7,0,15.7,1.4,26,4.2c10.3,2.8,18.7,6.5,25.1,11l-9.9,24.8c-8.1-3.5-15.1-6.1-21.2-7.7
			c-6.1-1.7-12.8-2.5-20-2.5c-12.4,0-22.5,4.6-30.2,13.9c-7.7,9.3-11.7,21.1-11.9,35.3c0,14.7,3.8,26.5,11.3,35.6
			c7.5,9.1,17.6,13.6,30.2,13.6c7.6,0,14.6-0.8,20.8-2.5C1219.8,308.7,1226.6,306.2,1234,302.7z"/>
		<path class="st2" d="M1406.2,305.1c-6.4,12-15.5,21.3-27.3,27.9c-11.8,6.6-25.5,9.9-41.2,9.9c-15.7,0-29.3-3.3-40.9-9.9
			c-11.6-6.6-20.5-15.8-26.8-27.7c-6.3-11.9-9.4-25.8-9.4-41.7c0-15.7,3.1-29.5,9.4-41.3c6.3-11.9,15.3-21.1,27.1-27.7
			c11.8-6.6,25.5-9.9,41.2-9.9c15.7,0,29.4,3.3,41,9.8c11.7,6.5,20.6,15.7,26.9,27.7c6.3,12,9.4,25.8,9.4,41.5
			C1415.8,279.3,1412.6,293.2,1406.2,305.1z M1368.3,298.9c7.7-9.3,11.6-21,11.6-35c0-14.7-3.8-26.6-11.3-35.8
			c-7.5-9.2-17.6-13.8-30.2-13.8c-12.4,0-22.5,4.6-30.2,13.9c-7.7,9.3-11.7,21.1-11.9,35.3c0,14.7,3.8,26.5,11.3,35.6
			c7.5,9.1,17.6,13.6,30.2,13.6C1350.4,312.9,1360.5,308.2,1368.3,298.9z"/>
	</g>
	<g id="Guides" class="st3">
		<rect x="285.4" y="123.8" class="st4" width="124" height="124"/>
	</g>
</g>
<g id="Logo_Negative" class="st3">
	<g class="st5">
		<path class="st6" d="M143.7,463.7C65.6,463.7,2,400.1,2,322c0-30,11.6-59.2,36.4-92.1l4-5.3l4,5.3c4.1,5.5,8.7,11.1,13.6,16.8
			c18.1,21,35.7,36.6,37.6,38.3l3.2,2.8l-2.3,3.6C90.6,303.7,86.6,314,86.6,322c0,31.5,25.6,57.1,57.1,57.1
			c31.5,0,57.1-25.6,57.1-57.1c0-8-4-18.3-11.9-30.6c-17.6-27.4-48.2-54.5-48.5-54.8c-1.3-1.1-32-28.4-50.3-56.9l-2-3l2.6-3.2
			l0.4-0.4l-0.1,0.1l52.7-46.5l52.6,46.4c0.1,0,0.1,0.1,0.2,0.1c2,1.8,20.2,18,38.5,39.3c5,5.8,9.7,11.6,14,17.3
			c24.8,32.9,36.4,62.2,36.4,92.1C285.4,400.1,221.8,463.7,143.7,463.7z M147,229.1c1.3,1.1,32,28.4,50.3,56.9
			c9,13.9,13.5,26,13.5,36c0,37-30.1,67.1-67.1,67.1c-37,0-67.1-30.1-67.1-67.1c0-9.1,3.8-20,11.3-32.4
			c-6.3-5.8-20.7-19.4-35.4-36.5c-3.5-4-6.8-8-9.9-12C21.7,270.1,12,295.9,12,322c0,72.6,59.1,131.7,131.7,131.7
			c72.6,0,131.7-59.1,131.7-131.7c0-27.7-10.9-55-34.4-86.1c-4.1-5.5-8.7-11.1-13.6-16.8c-17.9-20.8-35.6-36.5-37.6-38.3l-0.1-0.1
			l-46-40.6l-42.8,37.8C118.7,204,146.7,228.8,147,229.1"/>
		<path class="st7" d="M210.8,143.7c0,9.1-3.8,20-11.3,32.4c-1.6-1.5-2.7-2.5-3.1-2.8c-0.1,0-0.1-0.1-0.2-0.1l-4.3-3.8
			c5.9-10.1,8.9-18.7,8.9-25.6c0-31.5-25.6-57.1-57.1-57.1c-31.5,0-57.1,25.6-57.1,57.1c0,8,4,18.3,11.9,30.6
			c17.6,27.4,48.2,54.5,48.5,54.8c0.2,0.2,1.5,1.4,3.6,3.3l-6.7,7.5c-2.2-2-3.5-3.2-3.6-3.3c-1.3-1.1-32-28.4-50.3-56.9
			c-9-13.9-13.5-26.1-13.5-36c0-37,30.1-67.1,67.1-67.1C180.7,76.6,210.8,106.7,210.8,143.7z M143.7,2C65.6,2,2,65.6,2,143.7
			c0,30,11.6,59.2,36.4,92.1c4.3,5.6,9,11.5,14,17.3C71,274.6,89,290.7,91,292.4l0,0c0,0,0.1,0.1,0.1,0.1l52.6,46.4l48.3-42.6
			c-0.9-1.6-2-3.3-3-5c-0.8-1.2-1.6-2.4-2.4-3.6l-42.8,37.8l-46-40.6l-0.1-0.1l0,0c-1.9-1.7-19.5-17.3-37.6-38.3
			c-4.9-5.7-9.5-11.3-13.6-16.8C22.9,198.7,12,171.4,12,143.7C12,71.1,71.1,12,143.7,12c72.6,0,131.7,59.1,131.7,131.7
			c0,26.1-9.7,51.9-30.5,80.8c-0.8-1.1,2,2.5,4.1,5.3c0.8,1,1.5,2,2.2,3c23.3-31.7,34.2-60.1,34.2-89.1C285.4,65.6,221.8,2,143.7,2z
			"/>
	</g>
	<text transform="matrix(1 0 0 1 388.1783 338.8943)" class="st8 st9 st10">hostsco</text>
	<g id="Guides_1_" class="st5">
		<rect x="285.4" y="123.8" class="st11" width="124" height="124"/>
	</g>
</g>
</svg>
